# xmcd CD database file
#
# Track frame offsets:
#	180
#	19781
#	43051
#	56677
#	71021
#	84791
#	99755
#	123560
#	149376
#	162579
#	179136
#
# Disc length: 2623 seconds
#
# Revision: 0
# Processed by: cddbd v1.5.1PL2 Copyright (c) Steve Scherf et al.
# Submitted via: CDex 1.51
#
DISCID=980a3d0b
DTITLE=George Renaud Orchestra - New Age Greatest Hits
DYEAR=1997
DGENRE=New Age
TTITLE0=Swept Away - Yanny
TTITLE1=Chi Mai - Ennio Morricone
TTITLE2=Orinoco Flow - Enya
TTITLE3=The Heart Ask Pleasure First (The Promise) - Michael Nyman
TTITLE4=Song Bird - K. Gorelick
TTITLE5=Hotel Luna - Suzanne Ciani
TTITLE6=Barcelona Nights - O. Liebert
TTITLE7=Song Of The Trinity - Karl Jenkins
TTITLE8=Flute Battle - M.Holm
TTITLE9=Sea Planet - G.Breitung
TTITLE10=Aria On Air - Malcom McLaren
EXTD=YEAR: 1997
EXTT0=
EXTT1=
EXTT2=
EXTT3=
EXTT4=
EXTT5=
EXTT6=
EXTT7=
EXTT8=
EXTT9=
EXTT10=
PLAYORDER=
